PathFileType	4	(X/Y/Z)	Patient4_TMGait_0pt2_02_right_03.trc.trc
DataRate	CameraRate	NumFrames	NumMarkers	Units	OrigDataRate	OrigDataStartFrame	OrigNumFrames
44.444444444444	44.444444444444	7	33	mm	44.444444444444	71	       141
Frame#	Time	R.Midfoot.Superior			Sacral			L.Shoulder			Chest			R.Shoulder			Neck			R.ASIS			L.ASIS			R.Thigh.Superior			R.Thigh.Lateral			R.Thigh.Inferior			R.Patella			L.Thigh.Superior			L.Thigh.Lateral			L.Thigh.Inferior			L.Patella			L.Shank.Superior			L.Shank.Lateral			L.Shank.Inferior			R.Shank.Superior			R.Shank.Lateral			R.Shank.Inferior			R.Heel			R.Midfoot.Lateral			R.Toe			L.Heel			L.Midfoot.Lateral			L.Midfoot.Superior			L.Toe			L.Elbow			L.Wrist			R.Elbow			R.Wrist			
		X1	Y1	Z1	X2	Y2	Z2	X3	Y3	Z3	X4	Y4	Z4	X5	Y5	Z5	X6	Y6	Z6	X7	Y7	Z7	X8	Y8	Z8	X9	Y9	Z9	X10	Y10	Z10	X11	Y11	Z11	X12	Y12	Z12	X13	Y13	Z13	X14	Y14	Z14	X15	Y15	Z15	X16	Y16	Z16	X17	Y17	Z17	X18	Y18	Z18	X19	Y19	Z19	X20	Y20	Z20	X21	Y21	Z21	X22	Y22	Z22	X23	Y23	Z23	X24	Y24	Z24	X25	Y25	Z25	X26	Y26	Z26	X27	Y27	Z27	X28	Y28	Z28	X29	Y29	Z29	X30	Y30	Z30	X31	Y31	Z31	X32	Y32	Z32	X33	Y33	Z33	

71	6.985000000000	846.707708204777	95.046228010688	578.790690426294	733.961413788286	1010.091518474157	574.892805333515	878.404880968991	1427.668443760636	348.229687717205	1018.197103090605	1353.238267765201	475.674367683150	991.625814613061	1435.368951187149	662.206935663330	903.898470017819	1488.977066869019	501.680392843416	978.003800436079	929.359608145514	634.290953437872	905.293795708172	959.952428160405	370.876811515813	986.439239868687	722.814792506149	592.712157566809	904.050193171467	616.936321141924	661.277052450168	959.187499188615	562.362472462083	567.553422254026	949.080090617611	471.034052161027	571.636011458596	974.319859090866	767.576790063966	386.225475591081	907.352912532301	642.442781495120	314.636768675493	1011.057234542593	577.092450131838	365.287341773441	1030.874203928004	511.006803450625	359.474142889196	1008.288532138341	440.160893423190	345.496413398990	929.685643829155	318.909410933454	289.350434815521	1010.646903646752	209.268242903762	334.143895995691	902.992672277484	388.394609985160	579.603533829278	820.671334784011	295.176410418722	645.542843733792	835.333110764058	199.038338347764	574.480960416445	673.365259598525	48.066280200558	549.353391267110	758.810116761173	38.542645480966	620.614351942885	966.387552507468	39.115769696451	604.126654566100	911.055442720279	38.064770066476	364.973893198847	983.611826642570	38.595014159167	283.507679855114	1062.742710931637	108.060870719948	305.808572342427	1192.207893700252	66.818779105753	274.809402224025	695.876809903284	1121.055280604685	299.343282360827	626.640794055550	876.260886293035	363.971831590989	1187.178114886976	1170.033914648591	782.122713368109	1410.095866773494	1265.293518555195	706.240349148435	
72	7.007500000000	842.210238151258	95.073942123663	578.816661869697	733.836109145587	1009.834137239642	572.355635813030	877.058163245004	1427.202667018717	344.854947279167	1017.605707324504	1352.646724105163	471.445688679138	992.135879688610	1434.508062603086	658.191550807030	903.545026548631	1488.556644054432	498.256175761803	978.092431622877	928.954676052084	630.634499701615	904.055373149610	959.025693719448	367.518913138721	985.147482111633	722.098327226509	589.782275749371	902.311532557755	616.815438569022	659.039791288077	956.707140377162	561.631419319159	565.441468559729	945.923957144133	470.382334922838	569.905893391285	971.901822136112	765.228073622921	382.506322273577	902.311576472544	640.268137887632	312.895395053760	1006.296003163551	574.788184486470	362.613432592620	1025.078997623789	509.321478179791	357.770716142579	1003.954555365621	438.746948623612	343.991926342411	927.017643292539	316.110591415012	288.976041320799	1009.792235716416	208.071020569848	334.105388070774	899.615779459395	388.007498325960	578.296850358527	817.043828304016	295.336154011773	644.820228974103	831.223644652084	198.899619199500	574.001197848850	668.830493043611	48.162860149160	549.418868358338	754.270277174251	38.587294029525	620.676422132360	961.857018887249	39.090686985637	604.124313358805	912.214581306976	37.106903074036	366.141166146430	984.529292178222	37.562191230139	284.422395876378	1063.573228377202	106.893458304524	306.555046839370	1192.967498794791	65.588606753588	275.391007710724	695.230272688354	1119.767530099018	297.770818259240	626.228888621404	874.929698327564	362.445514714581	1189.456240399660	1169.775909987998	775.230759280093	1410.092667063941	1268.727453476608	697.913109067241	
73	7.030000000000	837.802798616795	95.171268078675	578.897066740007	733.803895749175	1009.570048056938	569.293206136443	876.115336110333	1426.690508415977	340.987385518064	1017.198707495289	1352.064400946445	466.993537028767	992.496454718250	1433.725339499482	653.867768334657	903.295186023070	1488.151345539385	494.346023059271	978.215132025867	928.634227819661	626.888060053883	903.226632227193	958.075253049061	363.975487770604	984.093193591715	721.438541977026	586.789008295897	900.748701731603	616.733747594274	656.635996818902	954.523731384831	560.942776510073	563.241127725899	943.084437799300	469.739016700038	568.095549927942	970.249713339581	763.146852621665	378.957996080261	898.442206060432	638.361191550135	311.085559656715	1002.557365275934	572.799209644470	360.165134605597	1020.188603261875	507.639612618753	356.163948705103	1000.161435618611	437.250915182123	342.513937049537	924.143159551479	313.814535781958	288.542433312622	1007.882201199760	206.857386940552	334.069538113320	896.471420650350	387.642441152355	576.894343462046	813.564005934436	295.614129900487	644.001695599655	827.238890085565	198.828920740678	573.480350484817	664.332524596356	48.432927016962	549.478706219887	749.756855200042	38.726881529242	620.735738974922	957.346811950109	39.041361318941	604.129243135863	911.165067885194	36.763975048543	367.266998353209	983.215168428954	36.872494020115	285.263978327618	1062.556110305042	105.576602109201	307.313642657924	1191.656638945326	63.582139219666	275.889789850741	695.290128925979	1118.315683633540	294.960132458056	626.728976135547	873.291998218450	359.281684415122	1190.931858975147	1169.088995931019	768.371401104225	1409.851608689680	1270.394790646011	689.645579197529	
74	7.052500000000	833.480224137421	95.332857448687	579.018088593992	733.849710848028	1009.362342987278	565.737341881782	875.550208184903	1426.191056793285	336.673199077305	1016.974971163044	1351.538801927998	462.336936343030	992.749377790974	1433.084723093959	649.261494844044	903.150684760378	1487.810599805621	489.994080837829	978.361403600135	928.416257212967	623.039024897514	902.771437629477	957.201723823777	360.236969726021	983.211289788896	720.853635120684	583.711985592397	899.298561636880	616.725128846467	654.071831586003	952.552353285108	560.319150225107	560.949320122057	940.472533383044	469.144485726429	566.208023534303	969.343249154211	761.468077534541	375.545516189471	895.795629217941	636.832930193130	309.109666615682	999.891834921078	571.226061851630	357.846347428513	1016.310233719566	506.093717706817	354.564705671305	997.054262592128	435.783319408769	341.005108518890	921.325214653083	312.024925789829	287.901063239218	1005.252229348120	205.650026533002	333.951437176491	893.493172968568	387.338664476496	575.406174334721	810.179942110133	296.031456328712	643.086410226354	823.353932077496	198.848479236967	572.924641108124	659.873050911204	48.885714019293	549.533534333098	745.272045007032	38.968347918979	620.791134421328	952.856929814945	38.967141067078	604.142546070349	908.391204196323	36.826745170643	368.210088547114	980.198620435978	36.407622791312	285.931693150696	1060.099667933615	104.172507445667	307.989254874588	1188.787352976258	61.082311582001	276.291658476944	695.974098846851	1116.818746601082	290.931715443126	628.045994029010	871.462361730152	354.463714208157	1191.779244395506	1168.180564346066	761.637369159565	1409.541797284708	1270.618714728758	681.499098154400	
75	7.075000000000	829.235691425363	95.552774147612	579.168452133752	733.961781959695	1009.260431566935	561.721752554673	875.328297987657	1425.757039944432	331.971384647840	1016.927258884588	1351.110096263257	457.501238346091	992.932322828383	1432.627886065825	644.409490934929	903.110602478100	1487.573669474525	485.260394746568	978.520162821934	928.312452329806	619.065262366068	902.648795625845	956.485340896373	356.286758440590	982.427713425848	720.357771949257	580.529162772496	897.893478479317	616.820625086361	651.357044453657	950.700413290428	559.779925741871	558.565734451966	937.992566338475	468.636365880424	564.249365736049	969.124935460001	760.281721738520	372.213926318382	894.346188637865	635.740966926061	306.894521773780	998.292031128339	570.118401180379	355.558050818280	1013.494018218419	504.775670215437	352.896118168659	994.719957032913	434.428341265518	339.424565631850	918.779229367444	310.721439420518	286.965052400411	1002.211819576088	204.483236358392	333.707686372398	890.610334617626	387.131353105855	573.845407155237	806.838029440998	296.603302326561	642.078348725226	819.540767637217	198.976500155698	572.342869716828	655.452694977789	49.523397007222	549.584667603295	740.816911607640	39.314401769258	620.841496237198	948.385930981296	38.868903232131	604.164923410879	904.394430988949	37.116527088030	368.897446007501	976.005476611186	36.087332214894	286.378465924570	1056.604515127207	102.773948474347	308.526022993824	1184.846655167710	58.405368586757	276.588816764205	697.207029545485	1115.373021535940	285.755572501513	630.092693193635	869.538093161351	348.034683161807	1192.159255306090	1167.226500609605	755.100814992871	1409.294112609959	1269.717873118905	673.554167062173	
76	7.097500000000	825.061059153436	95.824241811001	579.338793140227	734.132511872967	1009.294332931036	557.279352918649	875.410695660737	1425.430977265927	326.947376245674	1017.042608651249	1350.808771912881	452.517056763705	993.071990776308	1432.371701658661	639.357362331989	903.170206337198	1487.465892124502	480.215250352438	978.682077786710	928.328003697241	614.941382331804	902.820491462001	955.975787115001	352.106665751675	981.669944552258	719.959482389082	577.224351002637	896.469128433255	617.045252309449	648.506890621597	948.879400635796	559.339368235109	556.095994754324	935.553748148595	468.245208100578	562.230049791570	969.506347262662	759.617125183088	368.898156629757	893.988477327439	635.083503788053	304.400648485748	997.683735122425	569.467055732131	353.212905295652	1011.719653965101	503.726037274065	351.102681126447	993.171435479595	433.233277435481	337.749364459966	916.642565542783	309.854117183463	285.713753659765	999.011718137865	203.387824053924	333.332097545029	887.756255161204	387.047879755765	572.228077553072	803.489401333131	297.337248865810	640.986502041827	815.771882022083	199.225815234885	571.745620461314	651.071073612623	50.341776935760	549.633859841322	736.391298175090	39.763750841703	620.885775767708	943.931173027399	38.748954243679	604.196447071761	899.635560232691	37.492689950960	369.316059685076	971.104795934627	35.860048078993	286.604111570848	1052.429072878448	101.473012254601	308.907323088751	1180.257091592423	55.834439425189	276.784770755437	698.920185760625	1114.052554278478	279.538651477221	632.792675576855	867.600292684486	340.095836408770	1192.208634360445	1166.358403652039	748.810375729335	1409.197476330775	1267.991611179101	665.905966737189	
77	7.120000000000	820.946805403288	96.138655427871	579.518813248205	734.357637816990	1009.472896803103	552.441225660991	875.759330753233	1425.242167917373	321.666061216734	1017.304000474579	1350.654364643496	447.418972002729	993.179566606870	1432.310458107887	634.156147629162	903.321052187951	1487.497419429093	474.931662180860	978.840759695532	928.461559492887	610.646679985766	903.256320656711	955.688390874736	347.684346770613	980.878108566081	719.661050695855	573.793117131494	894.973414780802	617.415327519401	645.542070261099	947.017958610564	559.005448381697	553.552614799831	933.082916649554	467.990960060153	560.164109295948	970.376774428443	759.438389602210	365.532912598992	894.544131770502	634.805620195178	301.620756056400	997.925588868837	569.209076804570	350.742657429205	1010.892363307739	502.936398105889	349.149465110767	992.344416795160	432.208453539846	335.968801238967	914.962333860129	309.346427131380	284.179026720588	995.826691465447	202.383249285475	332.842017455634	884.877895308072	387.105175209706	570.571530891327	800.097043898345	298.233076827427	639.823687805507	812.024684551084	199.603557777830	571.143566035456	646.727169830053	51.332585592383	549.683003741952	731.994308396811	40.312566280773	620.923276886130	939.489404644405	38.610593109011	604.236305090744	894.495631576630	37.855906560405	369.496221559740	965.874454721517	35.693495939983	286.640974252764	1047.867314960626	100.339873212066	309.145426920528	1175.353175760158	53.576881046346	276.892573754052	701.051707104916	1112.910462054197	272.410947248047	636.082794016892	865.714991532397	330.798998090340	1192.030098083333	1165.656906161431	742.791344943519	1409.296853417921	1265.706532122377	658.657889894452	
